<svg width="180" height="180" viewBox="0 0 180 180" fill="none" xmlns="http://www.w3.org/2000/svg">
<path d="M90 88.875C70.875 88.875 54 73.125 54 52.875C54 32.625 69.75 18 90 18C109.125 18 126 33.75 126 54C126 74.25 109.125 88.875 90 88.875ZM90 25.875C75.375 25.875 63 38.25 63 52.875C63 67.5 74.25 79.875 90 79.875C105.75 79.875 117 67.5 117 52.875C117 38.25 104.625 25.875 90 25.875Z" fill="white"/>
<path d="M146.25 156.375H25.875V151.875C25.875 112.5 54 80.9999 87.75 80.9999C121.5 80.9999 149.625 112.5 149.625 150.75V155.25L146.25 156.375ZM34.875 147.375H141.75C140.625 115.875 117 89.9999 88.875 89.9999C59.625 89.9999 37.125 115.875 34.875 147.375ZM124.875 87.7499C122.625 87.7499 120.375 85.4999 120.375 83.2499C120.375 80.9999 122.625 78.7499 124.875 78.7499C136.125 78.7499 146.25 69.7499 146.25 57.3749C146.25 48.3749 140.625 40.4999 131.625 37.1249C129.375 35.9999 128.25 33.7499 129.375 31.4999C130.5 29.2499 132.75 28.1249 135 29.2499C147.375 32.6249 155.25 43.8749 155.25 57.3749C154.125 74.2499 140.625 87.7499 124.875 87.7499Z" fill="white"/>
<path d="M169.875 141.75H159.75C157.5 141.75 155.25 139.5 155.25 137.25C155.25 135 157.5 132.75 159.75 132.75H165.375C163.125 108 145.125 88.875 123.75 88.875C121.5 88.875 119.25 86.625 119.25 84.375C119.25 82.125 121.5 79.875 123.75 79.875C151.875 79.875 174.375 105.75 174.375 137.25V141.75H169.875Z" fill="white"/>
<path d="M52.875 87.7499C51.75 87.7499 51.75 87.7499 52.875 87.7499C45 87.7499 37.125 85.4999 31.5 79.8749C25.875 74.2499 23.625 66.3749 23.625 58.4999C23.625 46.1249 31.5 34.8749 43.875 30.3749C46.125 29.2499 48.375 30.3749 49.5 32.6249C50.625 34.8749 49.5 37.1249 47.25 38.2499C37.125 41.6249 31.5 49.4999 31.5 58.4999C31.5 64.1249 33.75 69.7499 37.125 73.1249C40.5 77.6249 46.125 78.7499 51.75 79.8749C55.125 79.8749 56.25 82.1249 56.25 84.3749C56.25 86.6249 55.125 87.7499 52.875 87.7499Z" fill="white"/>
<path d="M15.75 141.75H2.25V137.25C2.25 105.75 24.75 81 52.875 81C55.125 81 57.375 83.25 57.375 85.5C57.375 87.75 55.125 90 52.875 90C31.5 90 13.5 109.125 11.25 133.875H16.875C19.125 133.875 21.375 136.125 21.375 138.375C20.25 139.5 19.125 141.75 15.75 141.75Z" fill="white"/>
</svg>
