<svg fill="#000000" version="1.1" id="Layer_1" xmlns="http://www.w3.org/2000/svg" xmlns:xlink="http://www.w3.org/1999/xlink" 
	 viewBox="0 0 512.001 512.001" xml:space="preserve">
<g>
	<g>
		<path d="M423.892,229.581h-21.406v-43.154H49.378v82.953c0,97.352,79.202,176.554,176.554,176.554
			c62.029,0,116.683-32.159,148.182-80.675h49.777c37.406,0,67.839-30.433,67.839-67.839
			C491.731,260.015,461.298,229.581,423.892,229.581z M369.095,269.38c0,78.94-64.223,143.163-143.162,143.163
			c-78.94,0-143.163-64.223-143.163-143.163v-49.562h286.325V269.38z M423.892,331.867h-32.839
			c7.379-19.436,11.433-40.496,11.433-62.487v-6.408h21.406c18.994,0,34.448,15.453,34.448,34.448S442.886,331.867,423.892,331.867z
			"  fill="white"/>
	</g>
</g>
<g>
	<g>
		<rect x="20.27" y="478.61" width="411.325" height="33.391"  fill="white"/>
	</g>
</g>
<g>
	<g>
		<path d="M297.392,86.894c0-6.167,1.312-8.316,4.187-13.023c3.832-6.275,9.081-14.869,9.081-30.427
			c0-15.557-5.249-24.15-9.082-30.425c-2.875-4.706-4.186-6.854-4.186-13.019h-33.391c0,15.557,5.249,24.151,9.082,30.425
			c2.875,4.706,4.186,6.853,4.186,13.018c0,6.167-1.312,8.316-4.187,13.023c-3.832,6.278-9.081,14.871-9.081,30.43
			c0,15.558,5.249,24.152,9.081,30.426c2.875,4.707,4.187,6.855,4.187,13.023h33.391c0-15.558-5.249-24.152-9.081-30.427
			C298.705,95.21,297.392,93.062,297.392,86.894z" fill="white"/>
	</g>
</g>
<g>
	<g>
		<path d="M174.595,86.894c0-6.167,1.312-8.316,4.187-13.023c3.832-6.275,9.081-14.869,9.081-30.427
			c0-15.557-5.249-24.15-9.082-30.425c-2.875-4.706-4.186-6.854-4.186-13.019h-33.391c0,15.557,5.249,24.151,9.082,30.425
			c2.875,4.706,4.186,6.853,4.186,13.018c0,6.167-1.312,8.316-4.187,13.023c-3.832,6.278-9.081,14.871-9.081,30.43
			c0,15.558,5.249,24.152,9.081,30.426c2.875,4.707,4.187,6.855,4.187,13.023h33.391c0-15.558-5.249-24.152-9.081-30.427
			C175.907,95.21,174.595,93.062,174.595,86.894z" fill="white"/>
	</g>
</g>
</svg>