<svg width="180" height="180" viewBox="0 0 180 180" fill="none" xmlns="http://www.w3.org/2000/svg">
<g clip-path="url(#clip0_127_113)">
<path fill-rule="evenodd" clip-rule="evenodd" d="M115.334 25.8607C117.579 26.589 119.104 28.674 119.115 31.0347C119.159 32.0706 119.163 32.9138 119.163 32.9138C119.163 32.9138 119.127 61.6635 85.086 88.1289C71.2382 98.8952 59.2278 116.396 56.091 132.758C55.6786 134.946 53.985 136.67 51.8034 137.119C49.6218 137.568 47.3858 136.654 46.1424 134.802C36.441 120.426 25.4393 93.5593 43.785 61.7441C60.3276 33.0578 90.871 18.3882 115.334 25.8607ZM108.089 34.899C87.0415 32.2886 66.3992 45.0752 53.5278 67.3691C43.3044 85.0766 45.2766 105.185 50.2897 118.484C54.4289 106.162 62.496 91.4414 78.1823 79.2456C98.1695 63.7068 105.941 43.4732 108.089 34.899Z" fill="white"/>
<path fill-rule="evenodd" clip-rule="evenodd" d="M67.3867 152.49C65.0402 151.739 63.4421 149.563 63.4325 147.099C63.3855 146.14 63.3804 145.383 63.3804 145.383C63.3804 145.383 63.4163 116.634 97.4575 90.1682C111.181 79.499 123.099 62.2146 126.365 45.9821C126.817 43.7197 128.589 41.9498 130.855 41.5075C133.122 41.0627 135.432 42.0292 136.704 43.9553C146.333 58.4392 156.91 85.074 138.758 116.553C122.254 145.167 91.8217 159.836 67.3867 152.49ZM74.4544 143.398C95.5019 146.009 116.144 133.222 129.016 110.928C139.239 93.2205 137.267 73.1126 132.254 59.813C128.115 72.1349 120.047 86.8558 104.361 99.0515C84.3739 114.59 76.6021 134.824 74.4544 143.398Z" fill="white"/>
</g>
<defs>
<clipPath id="clip0_127_113">
<rect width="180" height="180" fill="white"/>
</clipPath>
</defs>
</svg>
