<svg viewBox="0 0 20 20" xmlns="http://www.w3.org/2000/svg">
  <path d="M10.5057 12.9804C10.4394 13.0469 10.3606 13.0997 10.2738 13.1357C10.1871 13.1717 10.0941 13.1902 10.0001 13.1902C9.90622 13.1902 9.81321 13.1717 9.72645 13.1357C9.63969 13.0997 9.56089 13.0469 9.49456 12.9804L5.20991 8.69574C5.14352 8.62935 5.09085 8.55053 5.05492 8.46378C5.01898 8.37703 5.00049 8.28405 5.00049 8.19016C5.00049 8.09626 5.01898 8.00328 5.05492 7.91653C5.09085 7.82978 5.14352 7.75096 5.20991 7.68457C5.2763 7.61817 5.35513 7.5655 5.44188 7.52957C5.52863 7.49364 5.6216 7.47515 5.7155 7.47515C5.8094 7.47515 5.90237 7.49364 5.98912 7.52957C6.07587 7.5655 6.15469 7.61817 6.22109 7.68457L10.0001 11.4651L13.7792 7.68457C13.9133 7.55048 14.0952 7.47515 14.2848 7.47515C14.4744 7.47515 14.6563 7.55048 14.7904 7.68457C14.9245 7.81866 14.9998 8.00052 14.9998 8.19016C14.9998 8.37979 14.9245 8.56165 14.7904 8.69574L10.5057 12.9804Z" fill="#fff" />
</svg>
