<svg width="32" height="32" viewBox="0 0 32 32" fill="none" xmlns="http://www.w3.org/2000/svg">
<path fill-rule="evenodd" clip-rule="evenodd" d="M16 24C20.4183 24 24 20.4183 24 16C24 11.5817 20.4183 8 16 8C11.5817 8 8 11.5817 8 16C8 20.4183 11.5817 24 16 24ZM16 21.3333C18.9455 21.3333 21.3333 18.9455 21.3333 16C21.3333 13.0545 18.9455 10.6667 16 10.6667C13.0545 10.6667 10.6667 13.0545 10.6667 16C10.6667 18.9455 13.0545 21.3333 16 21.3333Z" fill="#807F7E"/>
<path d="M24.0001 6.66675C23.2637 6.66675 22.6667 7.26371 22.6667 8.00008C22.6667 8.73645 23.2637 9.33341 24.0001 9.33341C24.7365 9.33341 25.3334 8.73645 25.3334 8.00008C25.3334 7.26371 24.7365 6.66675 24.0001 6.66675Z" fill="#807F7E"/>
<path fill-rule="evenodd" clip-rule="evenodd" d="M2.2052 5.70133C1.33325 7.41263 1.33325 9.65284 1.33325 14.1333V17.8666C1.33325 22.347 1.33325 24.5872 2.2052 26.2985C2.97219 27.8038 4.19603 29.0277 5.70133 29.7946C7.41263 30.6666 9.65284 30.6666 14.1333 30.6666H17.8666C22.347 30.6666 24.5872 30.6666 26.2985 29.7946C27.8038 29.0277 29.0277 27.8038 29.7946 26.2985C30.6666 24.5872 30.6666 22.347 30.6666 17.8666V14.1333C30.6666 9.65284 30.6666 7.41263 29.7946 5.70133C29.0277 4.19603 27.8038 2.97219 26.2985 2.2052C24.5872 1.33325 22.347 1.33325 17.8666 1.33325H14.1333C9.65284 1.33325 7.41263 1.33325 5.70133 2.2052C4.19603 2.97219 2.97219 4.19603 2.2052 5.70133ZM17.8666 3.99992H14.1333C11.849 3.99992 10.2963 4.002 9.09602 4.10005C7.92691 4.19557 7.32904 4.36871 6.91197 4.58121C5.90844 5.09255 5.09255 5.90844 4.58121 6.91197C4.36871 7.32904 4.19557 7.92691 4.10005 9.09602C4.002 10.2963 3.99992 11.849 3.99992 14.1333V17.8666C3.99992 20.1509 4.002 21.7035 4.10005 22.9038C4.19557 24.073 4.36871 24.6709 4.58121 25.0879C5.09255 26.0914 5.90844 26.9072 6.91197 27.4186C7.32904 27.6311 7.92691 27.8043 9.09602 27.8998C10.2963 27.9978 11.849 27.9999 14.1333 27.9999H17.8666C20.1509 27.9999 21.7035 27.9978 22.9038 27.8998C24.073 27.8043 24.6709 27.6311 25.0879 27.4186C26.0914 26.9072 26.9072 26.0914 27.4186 25.0879C27.6311 24.6709 27.8043 24.073 27.8998 22.9038C27.9978 21.7035 27.9999 20.1509 27.9999 17.8666V14.1333C27.9999 11.849 27.9978 10.2963 27.8998 9.09602C27.8043 7.92691 27.6311 7.32904 27.4186 6.91197C26.9072 5.90844 26.0914 5.09255 25.0879 4.58121C24.6709 4.36871 24.073 4.19557 22.9038 4.10005C21.7035 4.002 20.1509 3.99992 17.8666 3.99992Z" fill="#807F7E"/>
</svg>
