<svg width="32" height="32" viewBox="0 0 32 32" fill="none" xmlns="http://www.w3.org/2000/svg">
<path d="M14.6667 25.3333H8.26667C6.7732 25.3333 6.02645 25.3333 5.45603 25.0427C4.95425 24.7871 4.54631 24.3791 4.29065 23.8773C4 23.3069 4 22.5601 4 21.0667V10.9333C4 9.43987 4 8.69312 4.29065 8.12269C4.54631 7.62092 4.95425 7.21297 5.45603 6.95732C6.02645 6.66667 6.7732 6.66667 8.26667 6.66667H23.7333C25.2268 6.66667 25.9736 6.66667 26.544 6.95732C27.0457 7.21297 27.4537 7.62092 27.7093 8.12269C28 8.69312 28 9.43987 28 10.9333V14.6667M27.4756 11.0164L20.7332 15.5113C19.0225 16.6517 18.1672 17.222 17.2427 17.4436C16.4256 17.6393 15.5739 17.6393 14.7569 17.4436C13.8324 17.222 12.9771 16.6517 11.2663 15.5113L4.19661 10.7982M24.6635 20.9492C23.7304 19.9104 22.1745 19.6309 21.0055 20.5823C19.8365 21.5335 19.6719 23.124 20.59 24.2491C21.508 25.3741 24.6635 28 24.6635 28C24.6635 28 27.8189 25.3741 28.7369 24.2491C29.6551 23.124 29.5105 21.5235 28.3215 20.5823C27.1323 19.6409 25.5965 19.9104 24.6635 20.9492Z" stroke="#2B2A28" stroke-width="2" stroke-linecap="round" stroke-linejoin="round"/>
</svg>
