<svg width="64" height="64" viewBox="0 0 64 64" fill="none" xmlns="http://www.w3.org/2000/svg">
<path d="M29.3333 50.6666H16.5333C13.5464 50.6666 12.0529 50.6666 10.9121 50.0852C9.90851 49.574 9.09261 48.7581 8.58131 47.7546C8 46.6138 8 45.1202 8 42.1333V21.8666C8 18.8797 8 17.3862 8.58131 16.2453C9.09261 15.2418 9.90851 14.4259 10.9121 13.9146C12.0529 13.3333 13.5464 13.3333 16.5333 13.3333H47.4667C50.4536 13.3333 51.9472 13.3333 53.088 13.9146C54.0915 14.4259 54.9075 15.2418 55.4187 16.2453C56 17.3862 56 18.8797 56 21.8666V29.3333M54.9512 22.0327L41.4664 31.0226C38.0451 33.3034 36.3344 34.4439 34.4853 34.8871C32.8512 35.2786 31.1477 35.2786 29.5139 34.8871C27.6648 34.4439 25.9541 33.3034 22.5327 31.0226L8.39323 21.5963M49.3269 41.8983C47.4608 39.8207 44.3491 39.2618 42.0109 41.1644C39.6731 43.0668 39.3437 46.2479 41.18 48.498C43.016 50.7482 49.3269 55.9999 49.3269 55.9999C49.3269 55.9999 55.6379 50.7482 57.4739 48.498C59.3101 46.2479 59.0211 43.0468 56.6429 41.1644C54.2645 39.2818 51.1931 39.8207 49.3269 41.8983Z" stroke="white" stroke-width="4" stroke-linecap="round" stroke-linejoin="round"/>
</svg>
