<svg width="32" height="32" viewBox="0 0 32 32" fill="none" xmlns="http://www.w3.org/2000/svg">
<path d="M16.6667 9.38864C16.4499 9.35227 16.2272 9.33334 16 9.33334C13.7908 9.33334 12 11.1242 12 13.3333C12 15.5425 13.7908 17.3333 16 17.3333C18.2092 17.3333 20 15.5425 20 13.3333C20 13.1062 19.9811 12.8835 19.9447 12.6667" stroke="#2B2A28" stroke-width="2" stroke-linecap="round"/>
<path d="M6.66634 20.2881C5.80306 18.0829 5.33301 15.7351 5.33301 13.5244C5.33301 7.52784 10.1086 2.66666 15.9997 2.66666C21.8907 2.66666 26.6663 7.52784 26.6663 13.5244C26.6663 19.474 23.2619 26.4165 17.9502 28.8992C16.7121 29.478 15.2873 29.478 14.0491 28.8992C12.3527 28.1063 10.8508 26.8585 9.59218 25.3333" stroke="#2B2A28" stroke-width="2" stroke-linecap="round"/>
</svg>
