<svg width="1217" height="1478" viewBox="0 0 1217 1478" fill="none" xmlns="http://www.w3.org/2000/svg">
<path d="M1217 608.5C1217 1111.5 608.5 1478 608.5 1478C608.5 1478 0 1143 0 608.5C0 272.435 272.435 0 608.5 0C944.565 0 1217 272.435 1217 608.5Z" fill="#2B2A28"/>
<path d="M657.297 818.323C631.229 818.396 606.437 812.855 582.845 802.01C577.559 799.579 573.307 800.341 568.252 802.997C534.007 820.986 497.773 825.73 460 817.688C451.745 815.93 446.566 818.015 440.368 824.086C383.016 887.959 254.716 892.768 225.19 799.933C199.332 721.172 218.853 653.44 277.899 597.252C287.413 566.933 303.644 540.985 327.69 520.117C330.902 517.33 331.634 515.238 330.132 511.191C321.285 481.325 344.343 452.084 367.752 436.251C377.677 429.447 388.162 423.213 399.041 418.087C473.763 384.185 562.235 339.975 641.469 385.354C644.162 386.773 648.486 387.534 651.059 386.386C681.506 372.8 712.557 372.187 744.044 381.612C765.807 388.126 785.607 398.661 803.899 412.133C858.755 427.823 913.184 442.704 957.758 481.02C1017.41 521.425 1024.71 627.464 939.227 639.369C917.879 639.801 917.226 640.457 910.556 660.312C897.351 687.486 875.775 704.686 846.234 710.134C790.109 723.735 811.013 810.186 657.297 818.323ZM370.74 496.647C432.206 491.348 488.199 520.374 527.092 566.702C567.872 619.915 591.695 686.281 596.92 752.851C596.967 754.554 599.203 756.671 600.943 757.77C662.551 790.057 747.57 767.792 778.752 702.969C782.188 696.19 785.753 690.47 780.389 683.203C774.679 649.073 768.597 614.762 755.105 582.387C717.728 497.032 634.85 389.95 530.289 414.658C480.951 431.002 400.03 452.437 370.74 496.647ZM327.838 591.03C402.024 601.559 435.713 698.713 451.629 761.727C452.575 765.457 453.619 767.299 457.728 767.869C464.748 768.841 471.656 770.642 478.6 772.149C494.853 777.647 544.134 770.204 550.591 754.37C538.476 669.707 503.398 569.645 411.933 545.142C374.622 532.663 344.152 559.527 327.838 591.03ZM329.521 822.877C357.442 822.619 381.843 813.508 402.412 794.355C407.293 789.809 410.659 785.662 405.948 778.948C389.347 734.489 380.575 683.578 343.408 650.533C261.393 590.304 221.705 832.151 329.521 822.877ZM824.711 667.916C852.31 667.703 874.376 650.296 873.468 623.962C870.638 615.546 866.377 607.504 864.416 598.92C846.696 514.894 787.26 412.119 688.99 418.519C768.696 484.02 811.273 568.028 824.711 667.916ZM866.845 479.283C887.244 512.764 897.201 549.878 908.633 586.919C913.33 603.97 945.631 586.686 953.588 578.888C959.229 574.022 961.439 568.304 958.83 561.915C946.272 519.286 905.315 494.771 866.845 479.283Z" fill="white"/>
</svg>
