<svg width="64" height="64" viewBox="0 0 64 64" fill="none" xmlns="http://www.w3.org/2000/svg">
<path d="M37.3333 5.33325C37.3333 5.33325 43.1999 5.86659 50.6666 13.3333C58.1333 20.7999 58.6666 26.6666 58.6666 26.6666" stroke="white" stroke-width="4" stroke-linecap="round"/>
<path d="M37.8853 14.7617C37.8853 14.7617 40.5253 15.516 44.485 19.4758C48.4447 23.4356 49.1991 26.0755 49.1991 26.0755" stroke="white" stroke-width="4" stroke-linecap="round"/>
<path d="M10.6842 21.155C10.4913 26.2433 11.7791 34.8846 20.4473 43.5529C22.5385 45.6441 24.6282 47.3057 26.6668 48.6206M14.7676 13.166C18.4821 9.4515 24.4085 9.95059 26.767 14.1765L28.4977 17.2777C30.0596 20.0763 29.4326 23.7476 26.9726 26.2075C26.9726 26.2075 23.9891 29.1915 29.3988 34.6014C34.8068 40.0094 37.7926 37.0275 37.7926 37.0275C40.2526 34.5675 43.9238 33.9406 46.7225 35.5025L49.8236 37.2331C54.0497 39.5915 54.5486 45.5179 50.8342 49.2326C48.6022 51.4646 45.8678 53.2014 42.8452 53.3158C40.6745 53.3982 37.8569 53.211 34.6668 52.2963" stroke="white" stroke-width="4" stroke-linecap="round"/>
</svg>
