<svg width="32" height="32" viewBox="0 0 32 32" fill="none" xmlns="http://www.w3.org/2000/svg">
<path d="M17.334 4C17.334 4 20.2673 4.26667 24.0007 8C27.734 11.7333 28.0007 14.6667 28.0007 14.6667" stroke="#2B2A28" stroke-width="2" stroke-linecap="round"/>
<path d="M17.6094 8.71418C17.6094 8.71418 18.9294 9.09132 20.9092 11.0712C22.8891 13.0511 23.2663 14.3711 23.2663 14.3711" stroke="#2B2A28" stroke-width="2" stroke-linecap="round"/>
<path d="M4.00874 11.9108C3.91228 14.455 4.55618 18.7756 8.89027 23.1097C9.93588 24.1553 10.9807 24.9861 12 25.6436M6.05042 7.91631C7.90768 6.05904 10.8709 6.30859 12.0501 8.42156L12.9155 9.97213C13.6964 11.3714 13.3829 13.2071 12.1529 14.4371C12.1529 14.4371 10.6612 15.9291 13.366 18.634C16.07 21.338 17.5629 19.8471 17.5629 19.8471C18.7929 18.6171 20.6285 18.3036 22.0279 19.0845L23.5784 19.9499C25.6915 21.1291 25.9409 24.0923 24.0837 25.9496C22.9677 27.0656 21.6005 27.934 20.0892 27.9912C19.0039 28.0324 17.5951 27.9388 16 27.4815" stroke="#2B2A28" stroke-width="2" stroke-linecap="round"/>
</svg>
