<svg width="64" height="64" viewBox="0 0 64 64" fill="none" xmlns="http://www.w3.org/2000/svg">
<path d="M33.3333 18.7774C32.8997 18.7046 32.4544 18.6667 32 18.6667C27.5816 18.6667 24 22.2485 24 26.6667C24 31.0851 27.5816 34.6667 32 34.6667C36.4184 34.6667 40 31.0851 40 26.6667C40 26.2125 39.9621 25.767 39.8893 25.3334" stroke="white" stroke-width="4" stroke-linecap="round"/>
<path d="M13.3334 40.5762C11.6069 36.1658 10.6667 31.4701 10.6667 27.0487C10.6667 15.0556 20.218 5.33325 32.0001 5.33325C43.7822 5.33325 53.3334 15.0556 53.3334 27.0487C53.3334 38.9479 46.5246 52.833 35.9011 57.7983C33.4249 58.9559 30.5753 58.9559 28.099 57.7983C24.7061 56.2125 21.7022 53.717 19.1851 50.6666" stroke="white" stroke-width="4" stroke-linecap="round"/>
</svg>
