<svg width="180" height="180" viewBox="0 0 180 180" fill="none" xmlns="http://www.w3.org/2000/svg">
<path d="M119.283 134.503V162.276L132.589 167.814V127.225C128.409 130.092 123.951 132.53 119.283 134.503ZM47.4114 127.225V167.537L60.7176 161.999V134.503C56.049 132.53 51.5911 130.092 47.4114 127.225ZM89.9999 140.411C83.7166 140.415 77.4575 139.633 71.3682 138.084V180L89.9999 172.246L108.632 180V138.084C102.542 139.633 96.2832 140.415 89.9999 140.411ZM89.9999 0C54.225 0 25.1199 29.1051 25.1199 64.8804C25.1199 100.656 54.225 129.76 89.9999 129.76C125.775 129.76 154.88 100.655 154.88 64.88C154.88 29.1047 125.775 0 89.9999 0ZM89.9999 116.051C61.6384 116.051 38.5643 92.9765 38.5643 64.615C38.5643 36.2531 61.6384 13.179 89.9999 13.179C118.361 13.179 141.436 36.2531 141.436 64.615C141.436 92.9769 118.362 116.051 89.9999 116.051ZM89.9999 23.8296C67.5112 23.8296 49.2149 42.1255 49.2149 64.615C49.2149 87.1044 67.5112 105.4 89.9999 105.4C112.489 105.4 130.785 87.1037 130.785 64.6146C130.785 42.1255 112.489 23.8296 89.9999 23.8296ZM106.763 88.4178L89.9999 79.6052L73.2374 88.4178L76.4388 69.7527L62.8776 56.534L81.619 53.8104L89.9999 36.8279L98.3811 53.8104L117.123 56.534L103.561 69.7527L106.763 88.4178Z" fill="white"/>
</svg>
