<svg width="28" height="24" viewBox="0 0 28 24" fill="none" xmlns="http://www.w3.org/2000/svg">
<path d="M25.6129 0.872742C25.6129 0.872742 28.2031 -0.137258 27.9872 2.3156C27.9153 3.32561 27.2677 6.86061 26.7641 10.6842L25.0373 22.0107C25.0373 22.0107 24.8934 23.6699 23.5983 23.9585C22.3031 24.2471 20.3605 22.9485 20.0007 22.6599C19.7129 22.4435 14.6045 19.1971 12.8057 17.6099C12.3021 17.1771 11.7265 16.3113 12.8777 15.3013L20.4325 8.08708C21.2959 7.22135 22.1593 5.20135 18.5617 7.65421L8.48873 14.5078C8.48873 14.5078 7.33753 15.2292 5.17907 14.5799L0.502281 13.1371C0.502281 13.1371 -1.22453 12.0549 1.72543 10.9727C8.92047 7.58201 17.7703 4.11915 25.6129 0.872742Z" fill="#807F7E"/>
</svg>
