<svg width="28" height="16" viewBox="0 0 28 16" fill="none" xmlns="http://www.w3.org/2000/svg">
<path d="M17.063 7.74998C16.563 7.56198 16.563 6.84398 16.532 6.34398C16.407 4.56298 17.032 1.84398 16.282 0.687978C15.751 -2.20537e-05 13.188 0.0629779 11.626 0.156978C11.188 0.219978 10.657 0.312979 10.282 0.500979C9.90705 0.688979 9.53205 1.00098 9.53205 1.28198C9.53205 1.68798 10.47 1.62598 10.813 2.15698C11.188 2.71998 11.188 3.93798 11.188 4.93798C11.188 6.09398 11 7.62598 10.532 7.68798C9.81305 7.71898 9.40705 6.99998 9.03205 6.46898C8.28205 5.43798 7.53205 4.15598 6.96905 2.90598C6.68805 2.24998 6.53105 1.53098 6.12505 1.24998C5.50005 0.811978 4.37505 0.780979 3.28105 0.811979C2.28105 0.842979 0.843048 0.717979 0.562048 1.31198C0.343048 1.96798 0.812048 2.59298 1.06205 3.12498C2.34305 5.90598 3.71805 8.34398 5.40605 10.656C6.96905 12.812 8.43705 14.531 11.312 15.437C12.125 15.687 15.687 16.406 16.406 15.437C16.656 15.062 16.594 14.218 16.719 13.593C16.844 12.968 17 12.343 17.594 12.312C18.094 12.281 18.375 12.718 18.688 13.031C19.032 13.375 19.313 13.656 19.563 13.969C20.157 14.563 20.782 15.375 21.532 15.688C22.563 16.126 24.157 16.001 25.657 15.938C26.876 15.907 27.751 15.657 27.845 14.938C27.908 14.375 27.282 13.563 26.907 13.094C25.969 11.938 25.532 11.594 24.469 10.531C24 10.062 23.406 9.56198 23.406 8.99998C23.375 8.65598 23.656 8.34398 23.906 7.99998C25 6.37498 26.094 5.21898 27.094 3.53098C27.375 3.03098 28.032 1.87498 27.782 1.31198C27.501 0.686979 25.938 0.873978 24.969 0.873978C23.719 0.873978 22.094 0.779978 21.781 1.02998C21.187 1.43598 20.937 2.09298 20.656 2.71798C20.031 4.15598 19.187 5.62398 18.312 6.71798C17.999 7.09298 17.406 7.87398 17.062 7.74898L17.063 7.74998Z" fill="#807F7E"/>
</svg>
