<svg width="32" height="32" viewBox="0 0 32 32" fill="none" xmlns="http://www.w3.org/2000/svg">
<g opacity="0.6">
<path d="M8.01867 10.6748C8.17103 9.46987 9.73703 7.83219 10.9798 8.01391L10.9779 8.01192C12.1873 8.24176 13.1448 10.3235 13.6847 11.2595C14.0672 11.9387 13.8188 12.6268 13.462 12.9172C12.9807 13.3051 12.228 13.8404 12.3859 14.3779C12.6667 15.3333 16 18.6667 17.6395 19.6143C18.26 19.9729 18.71 19.0269 19.0943 18.5423C19.3735 18.1695 20.0621 17.9467 20.7397 18.3147C21.7517 18.904 22.7051 19.5889 23.5867 20.36C24.0269 20.728 24.1303 21.2719 23.8252 21.8467C23.2879 22.8591 21.7337 24.1941 20.6056 23.9228C18.6352 23.4491 10.6667 20.36 8.10711 11.4107C7.96316 10.9873 7.9994 10.8273 8.01867 10.6748Z" fill="#2B2A28"/>
<path fill-rule="evenodd" clip-rule="evenodd" d="M15.9999 30.6666C14.3685 30.6666 13.4658 30.4915 11.9999 29.9999L9.19249 31.4036C7.41941 32.2902 5.33325 31.0009 5.33325 29.0185V25.9999C2.46199 23.3226 1.33325 20.2355 1.33325 15.9999C1.33325 7.89974 7.89974 1.33325 15.9999 1.33325C24.1 1.33325 30.6666 7.89974 30.6666 15.9999C30.6666 24.1 24.1 30.6666 15.9999 30.6666ZM7.99992 24.8403L7.15185 24.0495C4.92108 21.9695 3.99992 19.6441 3.99992 15.9999C3.99992 9.3725 9.3725 3.99992 15.9999 3.99992C22.6274 3.99992 27.9999 9.3725 27.9999 15.9999C27.9999 22.6274 22.6274 27.9999 15.9999 27.9999C14.6857 27.9999 14.0693 27.8813 12.8479 27.4717L11.7979 27.1195L7.99992 29.0185V24.8403Z" fill="#2B2A28"/>
</g>
</svg>
